<svg width="391" height="218" viewBox="0 0 391 218" fill="none" xmlns="http://www.w3.org/2000/svg">
<path d="M43.2284 21L0.422048 146.609C-1.79086 159.816 4.883 166.478 16.1115 166.478C27.34 166.478 37.7254 162.006 42.2917 147.23L85.2737 21H43.2284Z" fill="#FFD100"/>
<path d="M131.459 144.846L173.797 20.0567C176.725 8.86335 169.98 0 158.752 0C147.523 0 137.138 5.05808 132.56 19.7991L89.4141 144.846H131.459Z" fill="#FFD100"/>
<path d="M88.3062 23.6016L106.209 83.9122L85.7186 144.644L67.6641 84.3571L88.3062 23.6016Z" fill="#FFD100"/>
<path d="M163.127 107.75L173.957 154.186L189.81 107.75H198.182L178.687 166.117H169.203L157.542 120.067L142.344 166.117H133.82L153.315 107.75H163.127Z" fill="#1F1F1F"/>
<path d="M193.801 166.117H185.406L205.1 107.75H213.495L193.801 166.117Z" fill="#1F1F1F"/>
<path d="M220.256 107.75H242.76C248.181 107.75 256.939 111.122 257.536 121.882C258.321 136.612 249.047 151.704 245.195 155.884C239.446 162.089 233.651 166.117 222.797 166.117H200.539L220.233 107.75H220.256ZM211.416 158.553H225.572C230.56 158.553 235.934 156.481 240.254 150.732C242.432 147.91 251.26 133.052 249.961 123.123C249.165 117.632 245.184 114.588 241.261 114.588H226.321L211.416 158.553Z" fill="#1F1F1F"/>
<path d="M310.084 107.75L307.391 114.927H275.31L269.42 132.115H299.418L297.099 139.621H267.102L260.967 158.553H292.638L289.945 166.117H249.68L269.35 107.75H310.084Z" fill="#1F1F1F"/>
<path d="M314.749 107.75H342.474C347.661 108.008 352.614 109.67 353.211 117.058C353.469 120.231 353.293 125.079 350.986 128.802C347.872 133.872 345.121 135.675 340.718 138.017C342.018 139.375 344.055 142.314 342.896 146.821C340.039 157.757 337.604 160.474 339.817 166.117C339.945 166.433 331.492 166.117 331.492 166.117C330.778 164.314 330.836 161.199 331.422 159.232C332.311 156.376 332.51 152.231 334.232 147.981C335.531 144.07 333.154 141.67 329.361 141.67H311.95L303.649 166.117H295.242L314.76 107.75H314.749ZM314.034 134.586H332.042C335.32 134.586 342.978 131.12 344.875 123.65C346.865 118.276 343.821 114.775 339.114 114.799H320.673L314.034 134.586Z" fill="#1F1F1F"/>
<path d="M390.68 166.117H382.344V149.011H362.252L350.93 166.117H341.844L381.266 107.75H390.645L390.68 166.117ZM366.467 142.782H382.367L382.39 119.54L366.467 142.782Z" fill="#1F1F1F"/>
<path d="M119.62 214.546C121.002 216.829 123.777 218 127.91 218C131.493 218 135.626 217.836 139.033 216.08C142.511 214.382 145.403 211.829 147.112 206.76C148.213 203.446 147.475 201.058 146.058 199.371C145.25 198.435 143.799 197.627 141.785 197.065L137.605 195.906C134.771 195.133 132.031 194.477 131.364 193.939C130.369 193.119 130.205 191.796 130.978 190.04C131.657 188.436 132.851 186.984 134.514 185.79C136.223 184.584 138.389 183.963 141.035 183.963C144.349 183.963 147.311 184.9 147.896 186.785C148.201 187.815 148.037 189.337 147.452 191.269H151.667C152.697 186.527 152.498 183.846 150.812 181.973C149.126 180.17 147.522 179.713 143.986 179.713C140.227 179.713 135.884 180.38 132.839 182.336C128.484 185.134 127.676 187.616 126.318 190.883C125.018 193.88 126.13 196.152 127.606 197.65C128.484 198.552 130.24 199.325 132.874 200.086L136.914 201.186C139.103 201.783 141.621 202.486 142.452 203.329C143.213 204.172 143.201 205.589 142.335 207.567C141.223 210.19 139.092 212.017 135.966 213.07C134.338 213.597 131.704 213.843 129.982 213.843C126.201 213.843 124.07 212.661 123.59 210.214C123.332 208.961 123.59 207.263 124.386 205.202H120.136C118.391 209.125 118.227 212.239 119.62 214.534" fill="#1F1F1F"/>
<path d="M306.449 214.546C307.83 216.829 310.57 218 314.738 218C318.309 218 322.443 217.836 325.873 216.08C329.28 214.382 332.219 211.829 333.917 206.76C335.029 203.446 334.256 201.058 332.851 199.371C332.055 198.435 330.639 197.627 328.613 197.065L324.421 195.906C321.611 195.145 318.836 194.477 318.181 193.939C317.185 193.119 317.045 191.796 317.771 190.04C318.462 188.436 319.656 186.996 321.354 185.79C323.016 184.584 325.194 183.963 327.875 183.963C331.177 183.963 334.128 184.9 334.701 186.785C334.994 187.815 334.854 189.337 334.256 191.269H338.518C339.514 186.527 339.303 183.846 337.605 181.973C335.943 180.17 334.292 179.713 330.802 179.713C326.985 179.713 322.7 180.38 319.644 182.336C315.277 185.134 314.492 187.616 313.123 190.883C311.846 193.88 312.924 196.152 314.434 197.65C315.277 198.552 317.045 199.325 319.679 200.086L323.731 201.186C325.932 201.783 328.449 202.486 329.245 203.329C330.018 204.172 330.018 205.589 329.14 207.567C328.028 210.19 325.908 212.017 322.77 213.082C321.178 213.597 318.497 213.843 316.799 213.843C313.029 213.843 310.875 212.661 310.395 210.214C310.16 208.961 310.418 207.263 311.191 205.202H306.94C305.231 209.125 305.055 212.239 306.437 214.534" fill="#1F1F1F"/>
<path d="M172.65 216.935L174.172 212.65H153.87L158.143 200.286H176.584L178.06 196.094H159.607L163.424 184.596H183.387L184.921 180.627H160.579L147.969 216.935H172.65Z" fill="#1F1F1F"/>
<path d="M176.594 216.935L189.204 180.627H195.69L194.637 211.315L214.822 180.627H221.238L208.652 216.935H204.331L211.778 195.52C212.059 194.759 212.469 193.541 213.101 191.797C213.698 190.111 214.377 188.273 215.045 186.282L194.906 216.923H190.41L191.452 186.282L191.042 187.394C190.738 188.308 190.304 189.666 189.696 191.469C189.087 193.284 188.654 194.642 188.361 195.52L180.914 216.935H176.594Z" fill="#1F1F1F"/>
<path d="M219.707 216.935L232.294 180.627H227.727L215.117 216.935H219.707Z" fill="#1F1F1F"/>
<path d="M226.117 216.935L238.727 180.627H243.247L232.135 212.65H249.054L247.579 216.935H226.117Z" fill="#1F1F1F"/>
<path d="M250.148 216.935L262.77 180.627H267.266L256.19 212.65H273.097L271.61 216.935H250.148Z" fill="#1F1F1F"/>
<path d="M297.474 186.503V202.04H287.018L297.474 186.503ZM276.937 216.945L284.314 206.056H297.544L297.521 216.945H302.591V180.637H297.462L272.289 216.945H276.926H276.937Z" fill="#1F1F1F"/>
</svg>
